<svg xmlns="http://www.w3.org/2000/svg" viewBox="0 0 100 100" width="100" height="100">
  <defs>
    <!-- 简约渐变 -->
    <linearGradient id="simpleGradient" x1="0%" y1="0%" x2="100%" y2="100%">
      <stop offset="0%" style="stop-color:#2196F3;stop-opacity:1" />
      <stop offset="100%" style="stop-color:#00BCD4;stop-opacity:1" />
    </linearGradient>
  </defs>
  
  <g transform="translate(50,50)">
    <!-- 外圆环 -->
    <circle cx="0" cy="0" r="40" fill="none" stroke="url(#simpleGradient)" stroke-width="4" opacity="0.3"/>
    
    <!-- 中央芯片核心 -->
    <rect x="-12" y="-12" width="24" height="24" rx="4" fill="url(#simpleGradient)"/>
    
    <!-- 简化电路纹理 -->
    <g stroke="#ffffff" stroke-width="1.5" opacity="0.9">
      <line x1="-8" y1="-4" x2="8" y2="-4"/>
      <line x1="-8" y1="0" x2="8" y2="0"/>
      <line x1="-8" y1="4" x2="8" y2="4"/>
      <line x1="-4" y1="-8" x2="-4" y2="8"/>
      <line x1="0" y1="-8" x2="0" y2="8"/>
      <line x1="4" y1="-8" x2="4" y2="8"/>
    </g>
    
    <!-- 四角连接点 -->
    <g fill="url(#simpleGradient)">
      <circle cx="-25" cy="-25" r="3"/>
      <circle cx="25" cy="-25" r="3"/>
      <circle cx="-25" cy="25" r="3"/>
      <circle cx="25" cy="25" r="3"/>
    </g>
    
    <!-- 连接线 -->
    <g stroke="url(#simpleGradient)" stroke-width="2" opacity="0.6">
      <line x1="-22" y1="-22" x2="-12" y2="-12"/>
      <line x1="22" y1="-22" x2="12" y2="-12"/>
      <line x1="-22" y1="22" x2="-12" y2="12"/>
      <line x1="22" y1="22" x2="12" y2="12"/>
    </g>
  </g>
</svg>
